<?xml version="1.0" encoding="UTF-8" standalone="no"?>
<!-- Uploaded to: SVG Repo, www.svgrepo.com, Generator: SVG Repo Mixer Tools -->

<svg
   width="800px"
   height="800px"
   viewBox="-26 0 308 308"
   version="1.1"
   preserveAspectRatio="xMidYMid"
   id="svg2"
   sodipodi:docname="file-svelte.svg"
   inkscape:version="1.4.4 (dcaf3e7d9e, 2026-05-05)"
   xmlns:inkscape="http://www.inkscape.org/namespaces/inkscape"
   xmlns:sodipodi="http://sodipodi.sourceforge.net/DTD/sodipodi-0.dtd"
   xmlns="http://www.w3.org/2000/svg"
   xmlns:svg="http://www.w3.org/2000/svg">
  <defs
     id="defs2" />
  <sodipodi:namedview
     id="namedview2"
     pagecolor="#505050"
     bordercolor="#eeeeee"
     borderopacity="1"
     inkscape:showpageshadow="0"
     inkscape:pageopacity="0"
     inkscape:pagecheckerboard="0"
     inkscape:deskcolor="#505050"
     inkscape:zoom="1.45375"
     inkscape:cx="479.10576"
     inkscape:cy="371.1092"
     inkscape:window-width="2560"
     inkscape:window-height="1371"
     inkscape:window-x="0"
     inkscape:window-y="0"
     inkscape:window-maximized="1"
     inkscape:current-layer="g2" />
  <g
     id="g2">
    <path
       id="path1"
       d="M 164.08999 0.035341797 C 146.68947 -0.44379306 129.19339 3.9436312 113.89486 13.690811 L 42.247266 59.35542 C 22.676364 71.667887 9.1959069 91.653645 5.1120605 114.41192 C 1.6942969 133.37096 4.6980551 152.9287 13.648232 169.98803 C 7.5153341 179.29127 3.332398 189.74133 1.3522949 200.70682 C -2.771034 223.90213 2.6230723 247.78073 16.316162 266.95163 C 44.8905 307.84412 101.31312 319.95816 142.10288 293.96705 L 213.75048 248.30244 C 233.32276 235.9914 246.80368 216.00496 250.88568 193.24594 C 254.30299 174.28712 251.30129 154.73039 242.35553 137.66908 C 248.48683 128.36606 252.66796 117.91579 254.6462 106.95104 C 258.77226 83.755671 253.37791 59.876772 239.68233 40.706982 L 239.68158 40.706982 C 221.8264 15.151578 193.09085 0.83389989 164.08999 0.035341797 z M 166.49098 35.080869 C 183.73561 36.009541 200.00884 44.773252 210.21254 59.4825 C 218.45119 71.014047 221.69642 85.378086 219.21567 99.331504 C 218.79804 101.59885 218.22554 103.83539 217.50272 106.02464 L 216.15372 110.14008 L 212.48344 107.44733 C 204.00421 101.21304 194.52196 96.473816 184.44611 93.433936 L 181.7827 92.625586 L 182.02783 89.96668 C 182.35051 86.185044 181.32685 82.410894 179.13732 79.310752 C 175.04296 73.402975 167.69739 70.677208 160.74004 72.483018 C 159.18245 72.899325 157.69809 73.551869 156.33811 74.417793 L 84.667197 120.09218 C 81.121849 122.32318 78.679522 125.94397 77.938721 130.06684 C 77.191251 134.27219 78.16762 138.60149 80.647256 142.07929 C 84.744116 147.98822 92.091106 150.71504 99.051309 148.91078 C 100.60851 148.49362 102.09218 147.84113 103.45249 146.97601 L 130.79802 129.54874 C 135.29328 126.68556 140.20083 124.52855 145.34981 123.15263 C 168.45109 117.14618 192.84642 126.18884 206.45127 145.80146 C 214.69025 157.33275 217.93627 171.69712 215.45516 185.65046 C 212.9975 199.34051 204.88793 211.36242 193.11538 218.76948 L 121.45049 264.44236 C 116.95137 267.30647 112.04008 269.46482 106.88741 270.84148 C 83.786369 276.84753 59.391518 267.80503 45.786709 248.19266 C 37.548056 236.66111 34.302076 222.29632 36.782822 208.3429 C 37.19866 206.07516 37.771189 203.83925 38.495771 201.65052 L 39.845527 197.53508 L 43.517314 200.23158 C 51.997135 206.46231 61.478143 211.19939 71.552383 214.23896 L 74.216553 215.04731 L 73.970664 217.70622 C 73.645189 221.48819 74.669856 225.2631 76.861924 228.36215 C 80.956285 234.26993 88.30111 236.99569 95.258457 235.18988 C 96.816043 234.77358 98.300405 234.12103 99.660391 233.25511 L 171.3313 187.58298 C 174.87713 185.35022 177.32088 181.72895 178.06504 177.60531 C 178.80791 173.39976 177.83061 169.07215 175.35199 165.59437 C 171.25518 159.68536 163.90815 156.95852 156.94794 158.76287 C 155.3924 159.17921 153.90951 159.83115 152.55127 160.69614 L 125.20273 178.13018 C 120.70553 180.98959 115.79715 183.14465 110.64868 184.52103 C 87.547404 190.52747 63.152074 181.48481 49.547227 161.8722 C 41.308242 150.3409 38.062978 135.97653 40.544092 122.02319 C 43.000134 108.33386 51.110292 96.312261 62.883867 88.908682 L 134.54801 43.232041 C 139.04713 40.367932 143.95842 38.210339 149.11108 36.833672 C 154.88637 35.332099 160.74276 34.771312 166.49098 35.080869 z "
       style="fill:#e75016;fill-opacity:1" />
  </g>
</svg>
