<?xml version="1.0" encoding="UTF-8" standalone="no"?>
<svg
   viewBox="0 0 24 24"
   version="1.1"
   id="svg3"
   sodipodi:docname="file-java.svg"
   inkscape:version="1.4.4 (dcaf3e7d9e, 2026-05-05)"
   xmlns:inkscape="http://www.inkscape.org/namespaces/inkscape"
   xmlns:sodipodi="http://sodipodi.sourceforge.net/DTD/sodipodi-0.dtd"
   xmlns="http://www.w3.org/2000/svg"
   xmlns:svg="http://www.w3.org/2000/svg">
  <defs
     id="defs3" />
  <sodipodi:namedview
     id="namedview3"
     pagecolor="#505050"
     bordercolor="#eeeeee"
     borderopacity="1"
     inkscape:showpageshadow="0"
     inkscape:pageopacity="0"
     inkscape:pagecheckerboard="0"
     inkscape:deskcolor="#505050"
     inkscape:zoom="17.132608"
     inkscape:cx="5.5157977"
     inkscape:cy="11.469357"
     inkscape:window-width="2560"
     inkscape:window-height="1371"
     inkscape:window-x="0"
     inkscape:window-y="0"
     inkscape:window-maximized="1"
     inkscape:current-layer="g3" />
  <!-- Java: coffee cup with steam -->
  <!-- Steam waves -->
  <!-- Cup body -->
  <!-- Cup handle -->
  <!-- Cup rim highlight -->
  <g
     id="g3"
     transform="matrix(1.0609112,0,0,1.0609112,-0.40873496,-0.22768178)">
    <path
       d="m 11.572068,0.88329116 c 0,0 0.314746,1.26528424 -0.238797,2.19064294 -0.553544,0.9253588 -0.342827,1.3198077 0.02483,1.4512557"
       stroke="#ffa040"
       stroke-width="1.3"
       stroke-linecap="round"
       fill="none"
       id="path1"
       sodipodi:nodetypes="czc"
       style="stroke:#b70000;stroke-opacity:1" />
    <path
       d="m 9.3389006,2.5852545 c 0,0 -1.770239,2.0501707 0.5776793,3.3301024"
       stroke="#ffa040"
       stroke-width="1.3"
       stroke-linecap="round"
       fill="none"
       id="path1-6"
       sodipodi:nodetypes="cc"
       style="stroke:#db0000;stroke-opacity:1" />
    <path
       d="m 4,7 h 12 v 9 c 0,2.2 -1.8,4 -4,4 H 8 C 5.8,20 4,18.2 4,16 Z"
       fill="#e76f00"
       id="path2" />
    <path
       d="m 16,9 h 2.5 c 1.4,0 2.5,1.1 2.5,2.5 0,1.4 -1.1,2.5 -2.5,2.5 H 16"
       stroke="#ff8f20"
       stroke-width="2"
       stroke-linecap="round"
       fill="none"
       id="path3" />
    <rect
       x="4"
       y="7"
       width="12"
       height="2"
       rx="0"
       fill="#ff8f20"
       id="rect3" />
  </g>
</svg>
