<?xml version="1.0" encoding="UTF-8" standalone="no"?>
<!-- Uploaded to: SVG Repo, www.svgrepo.com, Transformed by: SVG Repo Mixer Tools -->

<svg
   aria-label="TypeScript"
   role="img"
   viewBox="0 0 512 512"
   width="800px"
   height="800px"
   fill="#000000"
   version="1.1"
   id="svg1"
   sodipodi:docname="file-ts.svg"
   inkscape:version="1.4.4 (dcaf3e7d9e, 2026-05-05)"
   xmlns:inkscape="http://www.inkscape.org/namespaces/inkscape"
   xmlns:sodipodi="http://sodipodi.sourceforge.net/DTD/sodipodi-0.dtd"
   xmlns="http://www.w3.org/2000/svg"
   xmlns:svg="http://www.w3.org/2000/svg">
  <defs
     id="defs1" />
  <sodipodi:namedview
     id="namedview1"
     pagecolor="#505050"
     bordercolor="#eeeeee"
     borderopacity="1"
     inkscape:showpageshadow="0"
     inkscape:pageopacity="0"
     inkscape:pagecheckerboard="0"
     inkscape:deskcolor="#505050"
     inkscape:zoom="1.0279565"
     inkscape:cx="327.34849"
     inkscape:cy="484.94271"
     inkscape:window-width="2560"
     inkscape:window-height="1371"
     inkscape:window-x="0"
     inkscape:window-y="0"
     inkscape:window-maximized="1"
     inkscape:current-layer="SVGRepo_iconCarrier" />
  <g
     id="SVGRepo_bgCarrier"
     stroke-width="0" />
  <g
     id="SVGRepo_tracerCarrier"
     stroke-linecap="round"
     stroke-linejoin="round" />
  <g
     id="SVGRepo_iconCarrier">
    <path
       id="rect1"
       d="M 76.8 0 C 34.252798 0 4.7535311e-16 34.252798 0 76.8 L 0 435.2 C 0 477.7472 34.252798 512 76.8 512 L 435.2 512 C 477.7472 512 512 477.7472 512 435.2 L 512 76.8 C 512 34.252798 477.7472 4.7535311e-16 435.2 0 L 76.8 0 z M 403.7 237.44 C 415.7 237.44 425.7 238.14 434.7 239.54 C 443.7 240.94 452.1 243.14 459.7 246.04 L 459.7 293.04 C 456.2 290.44 452.1 288.14 447.7 286.14 C 443 284.14 438.4 282.54 433.7 281.24 C 429 279.94 424.3 278.97 419.7 278.34 C 415.3 277.71 410.9 277.4 406.7 277.4 C 400.6 277.4 395.4 277.9 390.7 279 C 385.9 280.1 381.9 281.6 378.7 283.6 C 375.5 285.6 373.01 287.9 371.2 290.7 C 369.39 293.5 368.5 296.6 368.5 300 C 368.5 303.7 369.5 307 371.5 310 C 373.5 312.9 376.3 315.7 380 318.4 C 383.3 321 387.8 323.6 393 326.2 C 399 328.8 404.4 331.4 411 334.1 C 420 337.9 428 342.1 435 346.1 C 442 350.1 447.9 354.8 453 360.1 C 458.4 365.1 462.3 371.1 465 378.1 C 467.7 385.1 469.1 393 469.1 402.1 C 469.1 415.1 466 425.1 462 434.1 C 458 443.1 451.1 449.8 443 455.1 C 435 460 426 463.8 415 466.1 C 404 468.4 393 469.5 381 469.5 C 369 469.5 357 468.5 346 466.4 C 335 464.3 325.1 461.2 317 457 L 317 409 C 324.1 414.94 334.1 420.64 345.1 424.44 C 355.1 428.24 366.1 430.14 377.1 430.14 C 384.1 430.14 389.4 429.54 394.1 428.44 C 399 427.24 402.9 425.64 406.1 423.64 C 409.3 421.64 411.68 419.24 413.2 416.44 C 414.72 413.64 415.5 410.64 415.5 407.44 C 415.5 402.84 414.2 398.84 411.7 395.44 C 409.4 392.04 406 388.84 401.7 385.94 C 397.7 383.04 392.7 380.24 386.7 377.54 C 380.7 374.84 374.6 372.04 367.7 369.24 C 350.7 361.24 337.3 353.24 328.7 342.24 C 320 332.24 315.7 319.24 315.7 304.24 C 315.7 292.24 318 282.64 322.7 274.24 C 327.7 265.24 333.6 258.64 341.7 253.24 C 349.7 247.74 358.7 243.74 369.7 241.24 C 380.7 238.74 391.7 237.44 403.7 237.44 z M 118 243 L 297 243 L 297 284 L 233 284 L 233 467 L 182 467 L 182 284 L 118 284 L 118 243 z "
       style="fill:#1fabe6;fill-opacity:1" />
  </g>
</svg>
