<?xml version="1.0" encoding="UTF-8" standalone="no"?>
<!-- Uploaded to: SVG Repo, www.svgrepo.com, Generator: SVG Repo Mixer Tools -->

<svg
   aria-label="JavaScript"
   role="img"
   viewBox="0 0 512 512"
   version="1.1"
   id="svg1"
   sodipodi:docname="file-js.svg"
   inkscape:version="1.4.4 (dcaf3e7d9e, 2026-05-05)"
   xmlns:inkscape="http://www.inkscape.org/namespaces/inkscape"
   xmlns:sodipodi="http://sodipodi.sourceforge.net/DTD/sodipodi-0.dtd"
   xmlns="http://www.w3.org/2000/svg"
   xmlns:svg="http://www.w3.org/2000/svg">
  <defs
     id="defs1" />
  <sodipodi:namedview
     id="namedview1"
     pagecolor="#505050"
     bordercolor="#eeeeee"
     borderopacity="1"
     inkscape:showpageshadow="0"
     inkscape:pageopacity="0"
     inkscape:pagecheckerboard="0"
     inkscape:deskcolor="#505050"
     inkscape:zoom="1.606182"
     inkscape:cx="144.13061"
     inkscape:cy="279.23361"
     inkscape:window-width="2560"
     inkscape:window-height="1371"
     inkscape:window-x="0"
     inkscape:window-y="0"
     inkscape:window-maximized="1"
     inkscape:current-layer="svg1" />
  <path
     id="rect1"
     d="M 76.800781 0 C 34.25358 0 0 34.25358 0 76.800781 L 0 435.19922 C 0 477.74642 34.25358 512 76.800781 512 L 435.19922 512 C 477.74642 512 512 477.74642 512 435.19922 L 512 76.800781 C 512 34.25358 477.74642 0 435.19922 0 L 76.800781 0 z M 369 202 C 400 202 422 213 437 241 L 400 265 C 392 250 383 244 369 244 C 355 244 346 253 346 265 C 346 279 355 285 376 294 L 388 299 C 429 317 452 334 452 375 C 452 418 418 442 372 442 C 327 442 298 421 284 393 L 324 370 C 334 387 348 399 371 399 C 391 399 404 389 404 375 C 404 359 391 353 369 343 L 357 338 C 322 323 299 305 299 266 C 299 230 326 202 369 202 z M 211 203 L 259 203 L 259 367 C 259 417 230 439 187 439 C 148 439 126 419 115 395 L 154 374 C 162 387 168 399 185 399 C 201 399 211 393 211 369 L 211 203 z "
     style="fill:#ebc200;fill-opacity:1" />
</svg>
